<svg xmlns="http://www.w3.org/2000/svg" viewBox="0 0 12.57 17.68" xml:space="preserve" width="37px" height="37px"><defs><style>.cls-1{fill:#041700;}.cls-2{fill:#f1924a;}.cls-3{fill:none;}</style></defs><title>ubicacion0</title><g id="Layer_2" data-name="Layer 2"><g id="MAPA"><g id="_Group_" data-name="&lt;Group&gt;"><g id="_Group_2" data-name="&lt;Group&gt;"><path id="_Compound_Path_" data-name="&lt;Compound Path&gt;" class="cls-1" d="M6.29,0A6.28,6.28,0,0,0,0,6.26c0,2.49,1.5,5.24,2.95,7.42a36.35,36.35,0,0,0,2.9,3.8.59.59,0,0,0,.83,0l0,0a36.35,36.35,0,0,0,2.9-3.8c1.45-2.19,2.95-4.93,2.95-7.42A6.28,6.28,0,0,0,6.29,0Zm0,1.18a5.09,5.09,0,0,1,5.11,5.08c0,2-1.35,4.66-2.75,6.77a31.4,31.4,0,0,1-2.36,3.14A31.4,31.4,0,0,1,3.93,13c-1.4-2.11-2.75-4.78-2.75-6.77A5.09,5.09,0,0,1,6.29,1.18Zm0,2.53A2.17,2.17,0,1,0,8.46,5.89,2.18,2.18,0,0,0,6.29,3.71Z"/></g><g id="_Group_3" data-name="&lt;Group&gt;"><g id="_Group_4" data-name="&lt;Group&gt;"><path id="_Path_" data-name="&lt;Path&gt;" class="cls-2" d="M7,16.3a6.85,6.85,0,0,0,1.76-2.4,3.94,3.94,0,0,1,.66-1.22c.18-.18.4-.32.58-.5.68-.66.69-1.72,1-2.61.13-.37.31-.71.45-1.07a5.44,5.44,0,0,0-.31-4.59A6,6,0,0,0,8.3,1.37,7.9,7.9,0,0,0,4.5.79,1.93,1.93,0,0,0,3.75,1a2.15,2.15,0,0,0-.59.54L2.09,2.75a5.47,5.47,0,0,0-.57.75,4.57,4.57,0,0,0-.41,1A8,8,0,0,0,.82,5.69,11.32,11.32,0,0,0,.74,7.31,4.29,4.29,0,0,0,.85,8.5a4.29,4.29,0,0,0,.51,1l2.59,4.24a8.47,8.47,0,0,0,1.27,1.73,1.62,1.62,0,0,1,.41.5,2,2,0,0,0,.13.33.81.81,0,0,0,.47.27,1.34,1.34,0,0,0,.74.07.46.46,0,0,0,.34-.58"/></g><g id="_Group_5" data-name="&lt;Group&gt;"><g id="_Group_6" data-name="&lt;Group&gt;"><path id="_Path_2" data-name="&lt;Path&gt;" class="cls-3" d="M6.29,1.18A5.09,5.09,0,0,0,1.18,6.26c0,2,1.35,4.66,2.75,6.77a31.42,31.42,0,0,0,2.36,3.14A31.42,31.42,0,0,0,8.64,13c1.4-2.11,2.75-4.78,2.75-6.77A5.09,5.09,0,0,0,6.29,1.18Z"/></g><g id="_Group_7" data-name="&lt;Group&gt;"><path id="_Compound_Path_2" data-name="&lt;Compound Path&gt;" class="cls-1" d="M6.29,0A6.28,6.28,0,0,0,0,6.26c0,2.49,1.5,5.24,2.95,7.42a36.38,36.38,0,0,0,2.9,3.8.59.59,0,0,0,.83,0l0,0a36.38,36.38,0,0,0,2.9-3.8c1.45-2.19,2.95-4.93,2.95-7.42A6.28,6.28,0,0,0,6.29,0ZM8.64,13a31.42,31.42,0,0,1-2.36,3.14A31.42,31.42,0,0,1,3.93,13c-1.4-2.11-2.75-4.78-2.75-6.77a5.11,5.11,0,0,1,10.22,0C11.39,8.26,10,10.93,8.64,13Z"/></g></g></g><g id="_Group_8" data-name="&lt;Group&gt;"><circle id="_Path_3" data-name="&lt;Path&gt;" class="cls-2" cx="6.29" cy="5.89" r="2.17"/><path id="_Compound_Path_3" data-name="&lt;Compound Path&gt;" d="M6.29,8.56A2.67,2.67,0,1,1,9,5.89,2.68,2.68,0,0,1,6.29,8.56Zm0-4.35A1.67,1.67,0,1,0,8,5.89,1.68,1.68,0,0,0,6.29,4.21Z"/></g></g></g></g></svg>
